<?xml version="1.0" encoding="utf-8"?>
<!-- Generator: Adobe Illustrator 24.2.3, SVG Export Plug-In . SVG Version: 6.00 Build 0)  -->
<svg version="1.1" id="Layer_1" xmlns="http://www.w3.org/2000/svg" xmlns:xlink="http://www.w3.org/1999/xlink" x="0px" y="0px"
	 viewBox="0 0 63.8 60.8" style="enable-background:new 0 0 63.8 60.8;" xml:space="preserve">
<style type="text/css">
	.st0{fill:url(#SVGID_1_);}
</style>
<g>
	<linearGradient id="SVGID_1_" gradientUnits="userSpaceOnUse" x1="-1.1034" y1="3.7309" x2="59.3609" y2="62.3056">
		<stop  offset="0" style="stop-color:#FFD318"/>
		<stop  offset="1" style="stop-color:#FEB906"/>
	</linearGradient>
	<path class="st0" d="M33.5,2l8.1,16.5c0.3,0.5,0.8,0.9,1.4,1l18.2,2.6c1.5,0.2,2.1,2.1,1,3.1L49.1,38.1c-0.4,0.4-0.6,1-0.5,1.6
		l3.1,18.1c0.3,1.5-1.3,2.6-2.6,1.9l-16.3-8.6c-0.5-0.3-1.2-0.3-1.7,0l-16.3,8.6c-1.3,0.7-2.9-0.4-2.6-1.9l3.1-18.1
		c0.1-0.6-0.1-1.2-0.5-1.6L1.5,25.3c-1.1-1.1-0.5-2.9,1-3.1l18.2-2.6c0.6-0.1,1.1-0.5,1.4-1L30.2,2C30.9,0.6,32.8,0.6,33.5,2z"/>
</g>
</svg>
