<?xml version="1.0" encoding="utf-8"?>
<!-- Generator: Adobe Illustrator 24.2.3, SVG Export Plug-In . SVG Version: 6.00 Build 0)  -->
<svg version="1.1" id="Layer_1" xmlns="http://www.w3.org/2000/svg" xmlns:xlink="http://www.w3.org/1999/xlink" x="0px" y="0px"
	 viewBox="0 0 32.8 25" style="enable-background:new 0 0 32.8 25;" xml:space="preserve">
<style type="text/css">
	.st0{fill:#FFFFFF;}
</style>
<g transform="matrix(.12614255 0 0 .12614153 249.420316 277.868251)">
	<path class="st0" d="M-1977.3-2005c0,0,53.4-84.9,62.1-99c8.7-14.1,16.2-15.4,40.2-15.4h53c-3.1,2.6-8.5,8.1-12.5,14.5l-53.9,86.7
		c-5.4,9.7-16.8,13.2-30.5,13.2H-1977.3z"/>
	<path class="st0" d="M-1766.4-2119.4c-24,0-31.6,1.3-40.7,15.4c-9.2,14.1-33.7,52-33.7,52h61.6c10.7,0,21.2-4.7,25.7-12.5
		l36.4-54.9H-1766.4z"/>
	<path class="st0" d="M-1791.6-2202.8c24,0,31.6,1.3,40.7,15.4c9.2,14.1,33.7,52,33.7,52h-61.6c-10.7,0-21.2-4.7-25.7-12.5
		l-36.4-54.9H-1791.6z"/>
</g>
</svg>
