<?xml version="1.0" encoding="utf-8"?>
<!-- Generator: Adobe Illustrator 24.2.3, SVG Export Plug-In . SVG Version: 6.00 Build 0)  -->
<svg version="1.1" id="katman_1" xmlns="http://www.w3.org/2000/svg" xmlns:xlink="http://www.w3.org/1999/xlink" x="0px" y="0px"
	 viewBox="0 0 113.4 26.2" style="enable-background:new 0 0 113.4 26.2;" xml:space="preserve">
<style type="text/css">
	.st0{fill:#006CB8;}
	.st1{fill:#ACC42A;}
	.st2{fill:#ED1B2F;}
</style>
<g>
	<g transform="matrix(.46337544 0 0 .46337544 152.158687 170.171349)">
		<path d="M-238.9-341.9h7.6c2.1,0,3.8,0.5,5.1,1.6c1.3,1,2.2,2.4,2.2,4.1c0,1.1,0,3.2-0.7,4.2c-0.6,1-1.6,1.7-2.9,2.2
			c-1.3,0.5-2.7,0.8-3.6,0.8l-3.3,0.1v6.4h-4.6L-238.9-341.9z M-234.4-337.8v5h2.8c0.8,0,1.5-0.3,2.1-0.8c0.6-0.5,0.9-1.1,0.9-1.8
			c0-0.8-0.3-1.4-1-1.8c-0.7-0.4-1.4-0.7-2.6-0.7H-234.4z"/>
		<path d="M-221.3-341.9h12.4v3.8h-7.8v3.5h7.6v4.2h-7.6v3.5h7.8v4.3h-12.4V-341.9z"/>
		<path d="M-204.7-341.9h7.9c2.1,0,3.4,0.5,4.6,1.5c1.2,1,1.6,2.6,1.8,4.1c0.1,1,0.1,2.1-0.5,3.1c-0.5,1.1-2.2,2.2-3.7,2.6l6,7.9
			h-5.5l-5.7-7.7h-0.5v7.7h-4.5L-204.7-341.9z M-200.3-338.1v5h1.6c2.3,0,3.5-1.2,3.5-2.9c0-2-2.1-2-3.4-2.1L-200.3-338.1
			L-200.3-338.1z"/>
		<path d="M-188.4-341.9h14.8v4.2h-5v15.1h-4.7v-15.1h-5V-341.9z"/>
		<path d="M-168.1-341.9h4.7l6.5,19.3h-4.8l-1.2-3.5h-5.9l-1.5,3.5h-4.5L-168.1-341.9z M-165.7-335.6l-2.1,6h4L-165.7-335.6z"/>
		<path d="M-152.1-341.9h4.4l3.6,10.7l3.9-10.7h4.4l2.5,19.3h-4.3l-1.3-10.9l-4.3,10.9h-1.8l-4.1-11.1l-1.9,11.1h-4L-152.1-341.9z"
			/>
		<path d="M-130.3-341.9h4.6v19.3h-4.6V-341.9z"/>
		<path d="M-108.5-341.8h4.2v19.2h-4.6L-117-334v11.4h-4.5v-19.2h4.3l8.7,11.9L-108.5-341.8L-108.5-341.8z"/>
		<path d="M-94.9-341.9h4.7l6.5,19.3h-4.8l-1.2-3.5h-5.9l-1.5,3.5h-4.5L-94.9-341.9z M-92.6-335.6l-2.1,6h4L-92.6-335.6z"/>
	</g>
	<g transform="matrix(.12614255 0 0 .12614153 249.420316 277.868251)">
		<path class="st0" d="M-1977.3-1995c0,0,56.1-89.2,65.2-104c9.1-14.8,17-16.2,42.3-16.2h55.6c-3.3,2.8-8.9,8.5-13.1,15.2l-56.6,91
			c-5.7,10.2-17.6,13.9-32,13.9H-1977.3z"/>
		<path class="st1" d="M-1755.8-2115.2c-25.3,0-33.2,1.4-42.8,16.2c-9.6,14.8-35.4,54.6-35.4,54.6h64.7c11.3,0,22.3-5,27-13.2
			l38.2-57.7H-1755.8z"/>
		<path class="st2" d="M-1782.3-2202.8c25.3,0,33.2,1.4,42.8,16.2c9.6,14.8,35.4,54.6,35.4,54.6h-64.7c-11.3,0-22.3-5-27-13.2
			l-38.2-57.7H-1782.3z"/>
	</g>
</g>
</svg>
